<?xml version="1.0" standalone="no"?><!DOCTYPE svg PUBLIC "-//W3C//DTD SVG 1.1//EN" "http://www.w3.org/Graphics/SVG/1.1/DTD/svg11.dtd"><svg t="1757669301033" class="icon" viewBox="0 0 1024 1024" version="1.1" xmlns="http://www.w3.org/2000/svg" p-id="7805" width="40" height="40" xmlns:xlink="http://www.w3.org/1999/xlink"><path d="M774.016 399.0656l-81.312 0 0-63.2512C692.704 204.9216 632.4096 128 512 128S331.296 204.9216 331.296 335.8144l0 63.2512L240.9408 399.0656c-24.96 0-45.1776 29.2544-45.1776 54.208l0 352.3776c0 24.8512 19.3536 51.4304 43.0016 59.0528l54.0544 17.44c23.648 7.6288 63.3216 13.8688 88.16 13.8688l262.0224 0c24.8448 0 64.5312-6.24 88.1856-13.8688l54.048-17.44c23.6416-7.616 42.9824-34.2016 42.9824-59.0528L828.2176 453.2672C828.2304 428.32 798.976 399.0656 774.016 399.0656zM421.6448 317.7408c0-65.28 36.0192-99.392 90.3552-99.392 54.3296 0 90.3488 34.112 90.3488 99.392l0 81.3248L421.6448 399.0656 421.6448 317.7408z" fill="#272636" p-id="7806"></path></svg>