<?xml version="1.0" standalone="no"?><!DOCTYPE svg PUBLIC "-//W3C//DTD SVG 1.1//EN" "http://www.w3.org/Graphics/SVG/1.1/DTD/svg11.dtd"><svg t="1757668332329" class="icon" viewBox="0 0 1024 1024" version="1.1" xmlns="http://www.w3.org/2000/svg" p-id="5694" width="40" height="40" xmlns:xlink="http://www.w3.org/1999/xlink"><path d="M579.271111 511.317333c-11.662222 0-23.352889 10.808889-23.352889 24.177778 0 10.808889 11.662222 21.674667 23.324445 21.674667 17.521778 0 30.008889-10.837333 30.008889-21.703111 0-13.312-12.487111-24.149333-29.980445-24.149334z m-76.743111-112.554666c18.375111 0 30.037333-11.662222 30.037333-29.184 0-18.346667-11.690667-29.184-30.037333-29.184-17.493333 0-34.161778 10.837333-34.161778 29.184 0 17.521778 16.668444 29.184 34.161778 29.184zM511.744 0C229.12 0 0 229.12 0 511.715556c0 282.652444 229.12 511.715556 511.715556 511.715555 282.652444 0 511.715556-229.091556 511.715555-511.687111C1023.431111 229.12 794.368 0 511.744 0z m-96.711111 641.365333c-30.833778 0-53.361778-5.006222-82.545778-13.340444l-84.195555 42.524444 24.177777-71.68c-59.221333-41.699556-94.208-94.236444-94.208-158.435555 0-113.351111 106.695111-200.078222 236.771556-200.078222 115.086222 0 217.6 68.352 237.624889 165.063111a115.797333 115.797333 0 0 0-22.499556-2.503111c-113.379556 0-200.931556 85.048889-200.931555 187.591111 0 17.493333 2.474667 33.365333 6.656 50.033777-6.684444 0.824889-14.165333 0.824889-20.849778 0.824889z m347.676444 81.692445l16.668445 60.046222-63.374222-35.84c-24.149333 4.977778-47.502222 12.515556-71.68 12.515556-111.729778 0-200.106667-76.714667-200.106667-171.747556 0-95.061333 88.376889-171.776 200.106667-171.776 105.870222 0 200.903111 76.714667 200.903111 171.776 0 53.333333-35.84 100.864-82.517334 135.054222zM337.493333 340.394667c-17.493333 0-35.84 10.837333-35.84 29.184 0 17.521778 18.346667 29.184 35.84 29.184 16.696889 0 30.008889-11.662222 30.008889-29.184 0-18.346667-13.312-29.184-30.008889-29.184z m372.707556 170.894222c-12.515556 0-23.352889 10.865778-23.352889 24.177778 0 10.865778 10.837333 21.703111 23.324444 21.703111 16.668444 0 29.184-10.837333 29.184-21.703111 0-13.312-12.515556-24.149333-29.155555-24.149334z" fill="#58BC47" p-id="5695"></path></svg>